<svg xmlns="http://www.w3.org/2000/svg" viewBox="0 0 512 512" width="32" height="32"><path d="M0 0v512h512V0z" style="fill:#fff"/><path d="M153 239c-19.296 10.107-35.898 24.784-54.334 36.469-9.746 8.32-25.277 12.621-28.707 25.99 10.307 22.926 37.564 33.928 53.605 53.08 23.285 14.774 12.398 37.312 10.867 58.461-.651 19.796 8.024 38.225 19.444 53.819.087 13.92-31.904 35.024-3.148 41.127 31.756-.396 63.54 1.133 95.273-.006 19.252-6.58 41.004 2.465 61.814-2.432 23.28-1.222 46.779-.326 69.928-2.577 22.922-15.46-28.073-30.897-1.261-46.867C390.505 438.797 387.188 414.047 382 394c17.874-14.94 18.512-36.425 19.87-57.426 5.253-19.862 14.036-38.696 19.178-58.498-3.848-24.04-39.175-41.312-45.81-57.149 17.788-29.3 26.65-64.276 19.6-98.294-7.322-55.089-52.16-100.874-106.02-112.296-60.4-15.446-128.372 16.547-155.647 72.445-15.833 30.943-17.902 68.464-9.611 101.874 5.448 20.418 16.821 37.82 29.44 54.344" style="fill:#010101"/><path d="m328 25 1 1z" style="fill:#576e57"/><path fill="#444b19" d="m267 26 1 1z"/><path fill="#ffff01" d="m180 329 18 8c9.24-17.53 14.78-38.36 21.56-57 2.31-6.35 3.57-17.15 9.57-21.24 4.73-3.22 14.51-.44 19.87.07 10.84 1.03 23.37.68 34-1.72 52.22-11.77 89.71-57.83 91.96-111.11C378.07 72.236 305.3 13.58 234 29.02c-43.93 9.507-76.57 43.459-88.57 85.985-10.53 37.33 1.89 78.48 27.37 106.83 6.71 7.46 14.87 14.11 23.29 19.57 3.73 2.42 9.79 4.83 10.96 9.62 1.32 5.42-4.33 13.76-5.85 18.98-5.82 19.96-16.4 38.78-21.2 59z"/><path fill="#444b19" d="m275 27 1 1zm-39 1 1 1zm-8 2 1 1z"/><path fill="#6c6c02" d="m291 31 1 1z"/><path fill="#989801" d="m207 38 1 1zM312 40l1 1z"/><path fill="#444b19" d="m313 40 1 1z"/><path fill="#6c6c02" d="m320 44 1 1z"/><path fill="#444b19" d="m321 45 1 1zm-130 2 1 1z"/><path fill="#989801" d="m192 47 1 1zM190 48l1 1z"/><path fill="#444b19" d="m326 48 1 1z"/><path d="m327 49 1 1z" style="fill:#989801"/><path fill="#9fc79f" d="m359 50 1 1z"/><path fill="#989801" d="m186 51 1 1zm-1 1 1 1zm-1 1 1 1z"/><path fill="#6c6c02" d="m182 54 1 1zm-1 1 1 1z"/><path fill="#9fc79f" d="m334 55 1 1z"/><path fill="#6c6c02" d="m180 56 1 1z"/><path d="m179 57 1 1zm-1 1 1 1zm-1 1 1 1z" style="fill:#989801"/><path fill="#6c6c02" d="m176 60 1 1zm-1 1 1 1z"/><path fill="#989801" d="m341 61 1 1z"/><path fill="#6c6c02" d="m174 62 1 1z"/><path fill="#989801" d="m342 62 1 1z"/><path fill="#6c6c02" d="m173 63 1 1z"/><path fill="#989801" d="m343 63 1 1zm-171 1 1 1zm172 0 1 1zm-173 1 1 1zm-1 1 1 1z"/><path fill="#010101" d="M299 75.518c-52.42 11.12-36.2 92.762 16 81.662 52.67-11.2 36.32-92.76-16-81.662"/><path fill="#444b19" d="m354 77 1 1z"/><path fill="#6c6c02" d="m161 78 1 1z"/><path fill="#010101" d="M203 78.432c-41.94 5.523-52.25 62.648-12 79.888 7.45 3.19 18.11 2.68 26 1.47 48.64-7.5 34.78-87.781-14-81.358"/><path fill="#989801" d="m289 78 1 1zm35 0 1 1z"/><path fill="#444b19" d="m355 78 1 1z"/><path fill="#989801" d="m221 80 1 1z"/><path fill="#9fc79f" d="m328 80 1 1z"/><path fill="#6c6c02" d="m356 80 1 1zM282 82l1 1z"/><path fill="#444b19" d="m185 83 1 1z"/><path fill="#989801" d="m281 83 1 1z"/><path fill="#6c6c02" d="m358 83 1 1zm-174 1 1 1z"/><path fill="#444b19" d="m228 84 1 1z"/><path fill="#989801" d="m280 84 1 1z"/><path fill="#444b19" d="m359 84 1 1z"/><path fill="#6c6c02" d="m182 85 1 1zm48 0 1 1z"/><path fill="#444b19" d="m334 85 1 1z"/><path fill="#6c6c02" d="m359 85 1 1zm-203 1 1 1zm25 0 1 1zm50 0 1 1z"/><path fill="#989801" d="m277 86 1 1z"/><path fill="#444b19" d="m305 86 1 1zM335 86l1 1zM232 87l1 1z"/><path fill="#989801" d="m276 87 1 1z"/><path d="M283 134c2.923-6.346 4.804-9.366 10.18-11.66 15.75-7.07 24.49 8.35 22.82 21.66 38.8-11.2 14.11-71.907-22-53.85-4.34 2.168-8.17 5.944-10.96 9.85-3.18 4.48-5.24 9.49-5.71 15-.59 6.86 2.59 13.13 5.67 19" style="fill:#fff"/><path fill="#989801" d="m360 87 1 1zm-205 1 1 1z"/><path fill="#6c6c02" d="m178 88 1 1z"/><path d="m276 88 1 1z" style="fill:#444b19"/><path fill="#576e57" d="m297 88 1 1z"/><path fill="#444b19" d="m235 89 1 1z"/><path fill="#6c6c02" d="m275 89 1 1z"/><path fill="#779375" d="m319 89 1 1z"/><path fill="#9fc79f" d="m201 90 1 1z"/><path fill="#FFF" d="M196 147c-1.86-8.13-2.94-15.07 3.38-21.79 10.5-11.16 28.74-3.58 30.62 10.79 9.52-9.43 5.95-29.23-3.17-37.74-12.58-11.724-31.99-10.389-42.89 2.76-3.76 4.52-5.37 9.22-6.17 14.98-.77 5.56.25 11.88 2.58 17 3.12 6.83 8.9 11.17 15.65 14"/><path fill="#989801" d="m274 90 1 1z"/><path fill="#576e57" d="m320 90 1 1z"/><path d="m175 91 1 1z" style="fill:#989801"/><path fill="#444b19" d="m197 91 1 1z"/><path fill="#576e57" d="m215 91 1 1z"/><path fill="#989801" d="m273 91 1 1z"/><path fill="#9fc79f" d="m291 91 1 1zM290 92l1 1z"/><path fill="#444b19" d="m324 92 1 1z"/><path fill="#6c6c02" d="m238 93 1 1zm34 0 1 1z"/><path fill="#576e57" d="m288 93 1 1z"/><path fill="#95bb95" d="m289 93 1 1z"/><path fill="#444b19" d="m325 93 1 1z"/><path fill="#6c6c02" d="m173 94 1 1z"/><path fill="#9fc79f" d="m191 94 1 1z"/><path fill="#779375" d="m221 94 1 1z"/><path d="m222 94 1 1z" style="fill:#444b19"/><path fill="#6c6c02" d="m271 94 1 1z"/><path fill="#95bb95" d="m287 94 1 1z"/><path fill="#779375" d="m326 94 1 1z"/><path fill="#444b19" d="m240 95 1 1z"/><path fill="#9fc79f" d="m286 95 1 1z"/><path d="m364 95 1 1z" style="fill:#989801"/><path fill="#9fc79f" d="m285 96 1 1zM284 97l1 1z"/><path fill="#576e57" d="m126 99 1 1z"/><path fill="#9fc79f" d="m185 99 1 1z"/><path fill="#444b19" d="m366 99 1 1z"/><path fill="#6c6c02" d="m169 100 1 1z"/><path fill="#9fc79f" d="m184 100 1 1z"/><path fill="#989801" d="m345 100 1 1zm21 0 1 1z"/><path fill="#6c6c02" d="m149 101 1 1z"/><path fill="#9fc79f" d="m182 102 1 1z"/><path fill="#444b19" d="m230 102 1 1z"/><path fill="#6c6c02" d="m244 102 1 1z"/><path fill="#444b19" d="m346 103 1 1zM233 107l1 1z"/><path fill="#989801" d="m166 108 1 1z"/><path fill="#6c6c02" d="m246 108 1 1z"/><path d="m278 108 1 1z" style="fill:#576e57"/><path fill="#444b19" d="m369 108 1 1zm-223 1 1 1z"/><path fill="#576e57" d="m178 109 1 1z"/><path fill="#95bb95" d="m234 110 1 1z"/><path fill="#444b19" d="m372 117 1 1z"/><path fill="#576e57" d="m213 119 1 1z"/><path d="m206 120 1 1z" style="fill:#779375"/><path fill="#9fc79f" d="m295 121 1 1z"/><path fill="#576e57" d="m304 121 1 1z"/><path fill="#444b19" d="m221 122 1 1z"/><path fill="#6c6c02" d="m143 123 1 1z"/><path fill="#9fc79f" d="m200 123 1 1z"/><path fill="#576e57" d="m223 123 1 1z"/><path fill="#9fc79f" d="m199 124 1 1z"/><path fill="#576e57" d="m224 124 1 1zm54 0 1 1z"/><path fill="#9fc79f" d="m289 124 1 1z"/><path fill="#926a61" d="m310 124 1 1z"/><path fill="#95bb95" d="m311 124 1 1z"/><path fill="#9fc79f" d="m198 125 1 1z"/><path fill="#444b19" d="m225 125 1 1z"/><path fill="#989801" d="m247 125 1 1z"/><path fill="#6c6c02" d="m266 125 1 1z"/><path fill="#9fc79f" d="m312 125 1 1z"/><path fill="#444b19" d="m166 130 1 1z"/><path fill="#9fc79f" d="m195 130 1 1z"/><path fill="#95bb95" d="m315 130 1 1z"/><path fill="#926a61" d="m179 131 1 1z"/><path fill="#9fc79f" d="m229 131 1 1z"/><path fill="#779375" d="m233 131 1 1z"/><path fill="#576e57" d="m281 131 1 1z"/><path fill="#95bb95" d="m284 131 1 1z"/><path fill="#9fc79f" d="m282 132 1 1z"/><path fill="#989801" d="m345 132 1 1zm-178 1 1 1z"/><path fill="#444b19" d="m180 133 1 1z"/><path fill="#576e57" d="m194 133 1 1z"/><path fill="#444b19" d="m232 133 1 1z"/><path d="m231 135 1 1z" style="fill:#444b19"/><path fill="#6c6c02" d="m169 138 1 1z"/><path fill="#444b19" d="m243 138 1 1zm28 0 1 1z"/><path fill="#6c6c02" d="m342 138 1 1z"/><path fill="#9fc79f" d="m169 139 1 1z"/><path fill="#989801" d="m243 139 1 1z"/><path fill="#6c6c02" d="m272 139 1 1z"/><path fill="#444b19" d="m325 139 1 1z"/><path fill="#9fc79f" d="m342 139 1 1zm-100 1 1 1z"/><path fill="#989801" d="m273 141 1 1z"/><path fill="#6c6c02" d="m274 142 1 1zM275 143l1 1z"/><path fill="#444b19" d="m190 144 1 1z"/><path fill="#6c6c02" d="m276 144 1 1z"/><path fill="#576e57" d="m192 145 1 1z"/><path fill="#444b19" d="m237 146 1 1z"/><path d="m175 147 1 1z" style="fill:#6c6c02"/><path fill="#989801" d="m237 147 1 1zm42 0 1 1z"/><path fill="#6c6c02" d="m176 148 1 1z"/><path fill="#444b19" d="m236 148 1 1z"/><path fill="#989801" d="m280 148 1 1z"/><path fill="#444b19" d="m177 149 1 1z"/><path fill="#989801" d="m281 149 1 1z"/><path fill="#444b19" d="m178 150 1 1z"/><path fill="#6c6c02" d="m282 150 1 1z"/><path fill="#989801" d="m328 152 1 1z"/><path fill="#444b19" d="m182 153 1 1z"/><path fill="#6c6c02" d="m325 153 1 1z"/><path d="m326 153 1 1z" style="fill:#989801"/><path fill="#444b19" d="m184 154 1 1z"/><path d="m229 154 1 1z" style="fill:#989801"/><path fill="#6c6c02" d="m320 155 1 1z"/><path d="m223 157 1 1zm-32 1 1 1z" style="fill:#989801"/><path fill="#9fc79f" d="m215 160 1 1z"/><path d="m143 162 1 1z" style="fill:#6c6c02"/><path fill="#6c6c02" d="m369 177 1 1z"/><path d="m367 183 1 1z" style="fill:#989801"/><path fill="#6c6c02" d="m149 184 1 1z"/><path fill="#989801" d="m366 185 1 1z"/><path fill="#444b19" d="m366 186 1 1z"/><path fill="#576e57" d="m390 187 1 1z"/><path fill="#989801" d="m364 190 1 1zm-212 1 1 1z"/><path fill="#444b19" d="m364 191 1 1z"/><path d="m153 193 1 1zm207 5 1 1z" style="fill:#989801"/><path fill="#6c6c02" d="m156 199 1 1z"/><path fill="#444b19" d="m157 200 1 1z"/><path fill="#6c6c02" d="m359 200 1 1z"/><path fill="#444b19" d="m359 201 1 1z"/><path fill="#989801" d="m161 207 1 1z"/><path fill="#444b19" d="m355 207 1 1z"/><path d="M162.33 208.67c-108.22 202.22-54.11 101.11 0 0" style="fill:#989801"/><path fill="#444b19" d="m354 208 1 1z"/><path fill="#989801" d="m163 210 1 1zm3 4 1 1zm1 1 1 1zm182 0 1 1zm-181 1 1 1zM170 219l1 1zm1 1 1 1zm1 1 1 1zm172 0 1 1z"/><path fill="#6c6c02" d="m173 222 1 1z"/><path fill="#989801" d="m343 222 1 1zm-1 1 1 1z"/><path fill="#6c6c02" d="m175 224 1 1z"/><path fill="#989801" d="m341 224 1 1z"/><path fill="#6c6c02" d="m176 225 1 1z"/><path fill="#989801" d="m177 226 1 1zm1 1 1 1zm1 1 1 1zm158 0 1 1z"/><path fill="#6c6c02" d="m180 229 1 1z"/><path fill="#989801" d="m336 229 1 1z"/><path fill="#6c6c02" d="m181 230 1 1z"/><path fill="#989801" d="m334 230 1 1z"/><path fill="#444b19" d="m335 230 1 1z"/><path fill="#6c6c02" d="m182 231 1 1z"/><path d="m184 232 1 1zm1 1 1 1zm1 1 1 1zm1 1 1 1zm3 2 1 1z" style="fill:#989801"/><path fill="#6c6c02" d="m326 237 1 1z"/><path fill="#444b19" d="m191 238 1 1z"/><path fill="#989801" d="m192 238 1 1z"/><path fill="#6c6c02" d="m320 241 1 1zm-1 1 1 1z"/><path d="M334 248c-222.667 176-111.333 88 0 0" style="fill:#5a081a"/><path fill="#ff013d" d="M237 270c-8.48 15.92-15.41 36.57-20.08 54-1.36 5.06-6.23 11.67-4.89 17 3.2 12.76 17.13 22.54 28.97 25.62 22.34 5.83 48.15 7.53 70-1.07 3.88-1.53 9.74-2.89 11.97-6.74 2.07-3.57.82-8.86 1.2-12.81.99-10.2 6.53-18.52 16.83-21 .01-9.11 1.67-18.72 8.46-25.47 3.91-3.89 10.2-6.15 14.14-1.19 9.75 12.3-3.7 27.68 12.4 36.66 13.76-29.42 26.34-75.12-15-88.74-5.23-1.73-11.36-4.63-17-4.08-10.25 1.01-22.68 14.27-32.42 18.73-22.23 10.18-50.54 14.88-74.58 9.09"/><path fill="#444b19" d="m199 243 1 1z"/><path d="m315 244 1 1z" style="fill:#989801"/><path fill="#444b19" d="m202 245 1 1z"/><path fill="#989801" d="m313 245 1 1z"/><path fill="#6c6c02" d="m314 245 1 1z"/><path fill="#989801" d="m311 246 1 1z"/><path fill="#444b19" d="m205 247 1 1z"/><path fill="#5a081a" d="m365 247 1 1z"/><path d="M206.67 249.33c-137.78 175.113-68.89 87.557 0 0" style="fill:#6c6c02"/><path fill="#576e57" d="m401 250 1 1z"/><path d="M181 251c-120.667 174-60.333 87 0 0" style="fill:#5a081a"/><path fill="#5a081a" d="m328 251 1 1z"/><path d="M181 253c-120.667 172.667-60.333 86.333 0 0" style="fill:#a30127"/><path d="M137 338c3.18-4.17 6.58-7.19 11-10-1.97-3.92-6.68-6.5-7.46-11-1.64-9.41 12.19-20.93 20.46-21.82 4.38-.48 12.3 5.08 15.49 2.99 2.51-1.64 3.42-6.55 4.51-9.17 3.1-7.51 12.87-25.96 7.97-33.72-2.473-3.922-7.709-3.822-13.38-2.146-7.631 2.256-16.05 7.364-19.59 9.366-13.64 7.73-26.48 17.21-39 26.63-3.86 2.9-12.34 8.01-13.48 13-1.24 5.43 2.89 10.17 6.2 13.83 7.67 8.5 17.17 16.64 27.28 22.04" style="fill:#ff013d"/><path d="M185.67 252.33c-123.78 173.113-61.89 86.557 0 0" style="fill:#a30127"/><path fill="#a30127" d="m170 255 1 1z"/><path fill="#989801" d="m289 255 1 1z"/><path fill="#a30127" d="m320 256 1 1z"/><path fill="#444b19" d="m230 257 1 1z"/><path fill="#989801" d="m281 257 1 1z"/><path fill="#5a081a" d="m318 257 1 1z"/><path d="M163.33 258.67c-108.887 168.887-54.443 84.443 0 0" style="fill:#5a081a"/><path fill="#6c6c02" d="m205 258 1 1zm23 0 1 1z"/><path d="m161 259 1 1z" style="fill:#5a081a"/><path fill="#6c6c02" d="m227 259 1 1z"/><path d="M160.33 260.67c-106.887 167.553-53.443 83.777 0 0" style="fill:#a30127"/><path fill="#444b19" d="m226 260 1 1z"/><path d="m154 263 1 1z" style="fill:#a30127"/><path fill="#989801" d="m223 267 1 1z"/><path fill="#5a081a" d="m386 267 1 1zm-198 1 1 1z"/><path fill="#989801" d="m201 268 1 1z"/><path d="M223.33 268.67c-148.887 162.22-74.443 81.11 0 0" style="fill:#444b19"/><path d="M222 270c-148 161.333-74 80.667 0 0" style="fill:#6c6c02"/><path fill="#5a081a" d="m236 270 1 1z"/><path d="M200 271c-133.333 160.667-66.667 80.333 0 0" style="fill:#989801"/><path d="m245 271 1 1z" style="fill:#5a081a"/><path fill="#a30127" d="m139 273 1 1z"/><path d="M186.33 273.67c-124.22 158.887-62.11 79.443 0 0" style="fill:#5a081a"/><path fill="#a30127" d="m137 274 1 1z"/><path fill="#6c6c02" d="m199 274 1 1z"/><path d="m185 275 1 1z" style="fill:#a30127"/><path d="M198.522 276.58c-132.348 156.947-66.174 78.473 0 0" style="fill:#444b19"/><path fill="#a30127" d="m234 275 1 1zM134 276l1 1zM133 277l1 1z"/><path fill="#5a081a" d="m131 278 1 1zm53.33.67c-.05.05-.11 1.11.34.66.05-.05.11-1.11-.34-.66M130 279l1 1z"/><path d="M183.33 280.67c-122.22 154.22-61.11 77.11 0 0" style="fill:#a30127"/><path fill="#5a081a" d="m127 281 1 1z"/><path fill="#a30127" d="M125.67 282.33c-.45.45.61.39.66.34.45-.45-.61-.39-.66-.34"/><path fill="#6c6c02" d="m218 282 1 1z"/><path fill="#5a081a" d="m231 282 1 1zm-107 1 1 1z"/><path d="M231.33 283.67" style="fill:#a30127"/><path fill="#9fc79f" d="m83 286 1 1z"/><path d="M216.33 287.67c-144.22 149.553-72.11 74.777 0 0" style="fill:#444b19"/><path fill="#a30127" d="m180 289 1 1z"/><path d="M215 289c-143.333 148.667-71.667 74.333 0 0" style="fill:#989801"/><path fill="#6c6c02" d="m193 290 1 1zm22.33.67c-.05.05-.11 1.11.34.66.05-.05.11-1.11-.34-.66"/><path d="M192.33 293.67c-128.22 145.553-64.11 72.777 0 0" style="fill:#989801"/><path d="m109 295 1 1zm57 0c-110.667 144.667-55.333 72.333 0 0" style="fill:#a30127"/><path d="M178.33 295.67c-118.887 144.22-59.443 72.11 0 0" style="fill:#5a081a"/><path d="M191.33 295.67c-127.553 144.22-63.777 72.11 0 0" style="fill:#6c6c02"/><path fill="#989801" d="m213 295 1 1z"/><path d="m108 296 1 1zm46.67.33c-103.113 143.78-51.557 71.89 0 0" style="fill:#a30127"/><path fill="#6c6c02" d="m213 296 1 1z"/><path d="m107 297 1 1z" style="fill:#a30127"/><path d="M171.33 297.67c-114.22 142.887-57.11 71.443 0 0" style="fill:#5a081a"/><path fill="#989801" d="m191 297 1 1z"/><path d="m226 297 1 1zm-119.67 1.67c-70.887 142.22-35.443 71.11 0 0" style="fill:#a30127"/><path fill="#5a081a" d="m177 298 1 1z"/><path d="M190.33 298.67c-126.887 142.22-63.443 71.11 0 0" style="fill:#444b19"/><path d="M173.67 299.33c-115.78 141.78-57.89 70.89 0 0" style="fill:#5a081a"/><path d="m176 299 1 1zM102 302c-68 140-34 70 0 0" style="fill:#a30127"/><path d="M147 302q1.662 1.662 0 0" style="fill:#5a081a"/><path fill="#6c6c02" d="m188 304 1 1z"/><path fill="#989801" d="m210 304 1 1z"/><path d="M223.33 305.67" style="fill:#a30127"/><path fill="#6c6c02" d="m209 306 1 1z"/><path d="M208 312c-138.667 133.333-69.333 66.667 0 0" style="fill:#444b19"/><path d="m106 312 1 1z" style="fill:#a30127"/><path fill="#444b19" d="m185 312 1 1z"/><path d="M207.33 312.67c-138.22 132.887-69.11 66.443 0 0" style="fill:#6c6c02"/><path fill="#a30127" d="m107 313 1 1z"/><path d="M140 313c-93.333 132.667-46.667 66.333 0 0" style="fill:#5a081a"/><path fill="#989801" d="m185 313 1 1z"/><path fill="#a30127" d="m108 314 1 1z"/><path d="M206.33 314.67c-137.553 131.553-68.777 65.777 0 0" style="fill:#989801"/><path d="m109 315 1 1zm1.33 1.67c-73.553 130.22-36.777 65.11 0 0" style="fill:#a30127"/><path d="M183.33 317.67c-122.22 129.553-61.11 64.777 0 0" style="fill:#444b19"/><path fill="#a30127" d="m111 318 1 1zm1 1 1 1z"/><path fill="#989801" d="m183 319 1 1z"/><path fill="#5a081a" d="m218 319 1 1z"/><path d="m382 320 1 1zm-267 1 1 1zm1 1 1 1zM117 323l1 1zm1 1 1 1zM146 325l1 1zm2.33 1.67c-98.887 123.553-49.443 61.777 0 0" style="fill:#a30127"/><path fill="#444b19" d="m180 326 1 1z"/><path d="m335 326 1 1zm-213 1 1 1zm93.33.67c-143.553 122.887-71.777 61.443 0 0" style="fill:#a30127"/><path fill="#a30127" d="m123 328 1 1z"/><path fill="#5a081a" d="m147 328 1 1z"/><path fill="#6c6c02" d="m201 328 1 1z"/><path d="M201.33 329.67c-134.22 121.553-67.11 60.777 0 0" style="fill:#444b19"/><path d="M214.33 329.67c-142.887 121.553-71.443 60.777 0 0" style="fill:#5a081a"/><path fill="#989801" d="m184 330 1 1z"/><path d="m373 333 1 1z" style="fill:#5a081a"/><path fill="#444b19" d="m191 334 1 1z"/><path fill="#989801" d="m192 334 1 1z"/><path fill="#6c6c02" d="m199 334 1 1z"/><path fill="#a30127" d="m327 334 1 1z"/><path fill="#5a081a" d="m374 334 1 1z"/><path d="M194.33 335.67c-129.553 117.553-64.777 58.777 0 0" style="fill:#6c6c02"/><path d="m375 335 1 1zm-241.33 1.33c-89.113 117.113-44.557 58.557 0 0" style="fill:#5a081a"/><path fill="#444b19" d="m195 336 1 1z"/><path d="M198.33 336.67c-132.22 116.887-66.11 58.443 0 0" style="fill:#989801"/><path fill="#9fc79f" d="m104 337 1 1z"/><path fill="#444b19" d="m197 337 1 1z"/><path fill="#926a61" d="m343 338 1 1z"/><path fill="#fbb5a7" d="M344.04 338.74c-8.51 3.44-8.51 27.18-1.48 32.23 3.87 2.78 17.29-.65 21.44-2.32 23.49-9.46-4.63-36.1-19.96-29.91"/><path fill="#444b19" d="m341 339 1 1zm-1 1 1 1z"/><path fill="#926a61" d="m357 340 1 1z"/><path fill="#a30127" d="m211 341 1 1zM212 342l1 1z"/><path fill="#926a61" d="m339 342 1 1zm22 0 1 1z"/><path fill="#5a081a" d="m324 343 1 1z"/><path d="M159 344c-106 112-53 56 0 0" style="fill:#b9867c"/><path fill="#a30127" d="m213 344 1 1z"/><path fill="#444b19" d="m364 344 1 1z"/><path fill="#fbb5a7" d="M201 365c-6.76-9.02-21.93-17.44-33-19.53-4.52-.85-12.18-1.71-14.24 3.59-2.56 6.57 3.94 13.06 9.24 15.61 11.8 5.69 25.9 4.17 38 .33"/><path fill="#926a61" d="m168 345 1 1z"/><path d="M214.33 345.67c-142.887 110.887-71.443 55.443 0 0" style="fill:#5a081a"/><path fill="#444b19" d="m365 345 1 1z"/><path fill="#a30127" d="m215 347 1 1z"/><path fill="#b9867c" d="m176 348 1 1z"/><path d="M178.67 349.33c-119.113 108.447-59.557 54.223 0 0" style="fill:#444b19"/><path fill="#5a081a" d="m216 349 1 1z"/><path d="M180.67 350.33c-120.447 107.78-60.223 53.89 0 0" style="fill:#926a61"/><path fill="#5a081a" d="m217 350 1 1z"/><path fill="#444b19" d="m370 350 1 1z"/><path fill="#b9867c" d="m182 351 1 1z"/><path fill="#576e57" d="m183 351 1 1z"/><path fill="#5a081a" d="m218 351 1 1z"/><path fill="#576e57" d="m371 351 1 1z"/><path fill="#444b19" d="m185 352 1 1z"/><path d="M153 354c-102 105.333-51 52.667 0 0" style="fill:#444b19"/><path d="m222 356 1 1z" style="fill:#5a081a"/><path fill="#926a61" d="m192 357 1 1z"/><path fill="#5a081a" d="m223 357 1 1z"/><path fill="#b9867c" d="m155 358 1 1z"/><path fill="#444b19" d="m338 358 1 1z"/><path d="M194.67 359.33c-129.78 101.78-64.89 50.89 0 0" style="fill:#b9867c"/><path fill="#5a081a" d="m320 361 1 1z"/><path fill="#926a61" d="m199 362 1 1z"/><path fill="#a30127" d="m319 362 1 1z"/><path fill="#926a61" d="m200 363 1 1z"/><path fill="#5a081a" d="m229 363 1 1z"/><path fill="#444b19" d="m161 364 1 1z"/><path fill="#926a61" d="m162 364 1 1zm39 0-1 2h2c0-1.85.3-1.35-1-2"/><path d="M163.67 365.33c-109.113 97.78-54.557 48.89 0 0" style="fill:#444b19"/><path fill="#b9867c" d="m199 365 1 1z"/><path d="M311.67 365.33c-207.78 97.78-103.89 48.89 0 0" style="fill:#5a081a"/><path d="M196 366c-130.667 97.333-65.333 48.667 0 0" style="fill:#444b19"/><path fill="#576e57" d="m134 367 1 1z"/><path fill="#b9867c" d="m191 367 1 1z"/><path fill="#a30127" d="m244 367 1 1zm61 0 1 1z"/><path fill="#444b19" d="m366 367 1 1z"/><path fill="#926a61" d="m364 368 1 1z"/><path fill="#5a081a" d="m298 369 1 1z"/><path fill="#95bb95" d="M357 385c-17.01 3.2-27.07 2.97-31-16-11.91 1.56-23.62 7.8-36 9.57-4.1.59-11.08-.98-14.3 2.03-5.1 4.77-5.44 14.02-5.74 20.4-.22 4.66-2.39 9.33-1.6 14 1.72 10.26 13.38 21.18 19.74 29 4.59 5.66 10.59 14.3 17.9 16.49 8.24 2.46 16.55-4.65 23-8.83 9.21-5.99 19.98-13.42 24.98-23.66 2.33-4.78.91-11.82 1.04-17 .21-8.7 1.98-17.26 1.98-26"/><path fill="#444b19" d="m358 370 1 1z"/><path fill="#576e57" d="m305 375 1 1z"/><path fill="#9fc79f" d="M157 384c0 13.94-.51 25.95 5.22 39 4.77 10.86 10.96 21.1 18.95 30 6.92 7.7 14.83 8.96 24.83 9 17.21.08 33.73-6.21 42.48-22 11.07-19.97 3.58-55.02-21.52-61.31-7.81-1.95-23.68 6.35-31.96 8.1-13.65 2.89-24.79-.54-38-2.79"/><path fill="#779375" d="m290 378 1 1zM229 379l1 1z"/><path d="M216 380c-144 88-72 44 0 0" style="fill:#576e57"/><path d="M274.67 381.33c-183.113 87.113-91.557 43.557 0 0" style="fill:#444b19"/><path d="M232.33 381.67c-154.887 86.887-77.443 43.443 0 0" style="fill:#779375"/><path d="M211 382c-140.667 86.667-70.333 43.333 0 0" style="fill:#95bb95"/><path d="M273 385c-182 84.667-91 42.333 0 0" style="fill:#444b19"/><path d="m208 383 1 1zm27 0 1 1zm1 1 1 1z" style="fill:#779375"/><path fill="#576e57" d="m162 385 1 1z"/><path fill="#444b19" d="m238 385 1 1z"/><path d="m239 386 1 1zm33 0 1 1z" style="fill:#444b19"/><path fill="#9fc79f" d="m137 387 1 1z"/><path fill="#779375" d="m191 387 1 1z"/><path fill="#576e57" d="m240 387 1 1zm1 1 1 1zm1 1 1 1zm-106 1 1 1zm107 0 1 1z"/><path fill="#9fc79f" d="m136 391 1 1z"/><path d="m244 391 1 1zm2 3 1 1z" style="fill:#576e57"/><path fill="#779375" d="m155 395 1 1z"/><path fill="#444b19" d="m251 403 1 1z"/><path fill="#576e57" d="M365 406c-.86 6.78 1.35 18.22-1.49 24.2-7.25 15.25-24.45 25.44-38.51 33.66-6.58 3.84-13.19 7.73-21 5.03-16.77-5.8-20.94-25.76-35-33.89 0 8.86.3 16.69 3.74 25 17.58 42.43 71.5 11.84 89.46-14 7.43-10.69 13.35-29.47 2.8-40m-208 3 1 1z"/><path fill="#779375" d="m268 416 1 1z"/><path d="m253 425 1 1z" style="fill:#779375"/><path d="m274 426 1 1z" style="fill:#444b19"/><path fill="#779375" d="m275 427 1 1zM278 431l1 1z"/><path fill="#576e57" d="M155 432c2.63 10.96 11.11 20.8 17.28 30.04 2.17 3.23 4.52 8.56 8.1 10.4 4.57 2.35 11.58 2.11 16.62 2.72 15.31 1.83 33.26 2.59 48-2.5 5.63-1.95 11.75-4.02 14.68-9.66 2.98-5.74-.56-14.03-1.68-20-5.56 5.92-9.39 12.43-16 17.54-14.23 10.98-43.14 17.76-59 6.03-12.43-9.19-17.42-24.31-28-34.57m11 0 1 1zm113 0 1 1z"/><path fill="#444b19" d="m362 432 1 1z"/><path fill="#576e57" d="m167 433 1 1zM349 433l1 1z"/><path d="m280 434 1 1z" style="fill:#444b19"/><path fill="#444b19" d="m281 435 1 1z"/><path fill="#576e57" d="m282 436 1 1z"/><path fill="#444b19" d="m169 437 1 1zM357 437l1 1z"/><path d="m170 438 1 1z" style="fill:#779375"/><path fill="#444b19" d="m356 438 1 1zm-186 1 1 1z"/><path fill="#576e57" d="m284 439 1 1z"/><path fill="#444b19" d="m355 439 1 1zm-197 1 1 1zm13 0 1 1z"/><path fill="#576e57" d="m248 440 1 1z"/><path fill="#444b19" d="m285 440 1 1z"/><path fill="#779375" d="m343 440 1 1z"/><path d="m354 440 1 1zm-11 1 1 1zm-54 4 1 1zm-30 7c-172.667 40-86.333 20 0 0" style="fill:#444b19"/><path fill="#576e57" d="m290 446 1 1zM236 453l1 1zm90 0 1 1z"/><path fill="#444b19" d="m341 453 1 1zM297 454l1 1zM355 454l1 1z"/><path fill="#576e57" d="m233 455 1 1z"/><path fill="#444b19" d="m248 455 1 1zm38 0 1 1zm12 0 1 1z"/><path fill="#576e57" d="m320 456 1 1z"/><path fill="#444b19" d="m321 456 1 1z"/><path fill="#779375" d="m229 457 1 1z"/><path fill="#444b19" d="m288 457 1 1z"/><path fill="#779375" d="m319 457 1 1z"/><path d="m289 458 1 1z" style="fill:#444b19"/><path fill="#9fc79f" d="m375 459 1 1z"/><path d="M200 462c-133.333 33.333-66.667 16.667 0 0" style="fill:#576e57"/></svg>