<svg xmlns="http://www.w3.org/2000/svg" viewBox="0 0 69.321 69.321" width="32" height="32"><path d="M0 0h69.321v69.321H0z" style="fill:#4661a9;fill-opacity:1"/><g style="display:inline"><path d="M69.32 69.32V19.2L58.83 8.71l-14.124.695-1.525 5.558-7.174-7.174-11.346 1.72-1.952 3.339-6.725-6.726-5.809 27.402 8.32 8.322-7.4 7.312 4.753 4.754-4.76 8.41 7 6.999z" style="fill:#324c96;fill-opacity:1;stroke:none"/></g><g style="display:inline"><path d="M139.925 137.786h5.81v27.407h-5.81zM168.642 165.194h-19.381v-4.078l6.96-7.035q3.09-3.167 4.039-4.39.948-1.224 1.365-2.267a5.8 5.8 0 0 0 .417-2.162q0-1.668-.92-2.484-.918-.815-2.455-.816a7.1 7.1 0 0 0-3.13.74q-1.517.74-3.167 2.105l-3.185-3.774q2.047-1.745 3.394-2.465t2.94-1.11q1.593-.388 3.565-.388 2.598 0 4.59.948 1.99.948 3.09 2.655t1.1 3.906a9.6 9.6 0 0 1-.673 3.595q-.672 1.678-2.086 3.441-1.412 1.764-4.978 5.026l-3.565 3.357v.265h12.08zM177.574 150.684h1.912q2.68 0 4.012-1.06 1.33-1.058 1.331-3.083 0-2.043-1.115-3.019-1.116-.974-3.497-.974h-2.643zm13.123-4.35q0 4.425-2.765 6.768t-7.865 2.344h-2.493v9.748h-5.811v-27.408h8.754q4.987 0 7.584 2.147 2.596 2.145 2.596 6.401" style="fill:#fff;fill-opacity:1;fill-rule:nonzero;stroke:none" transform="translate(-129.75 -131.666)"/><path d="M150.266 190.042a5.542 5.542 0 1 0-11.084 0 5.542 5.542 0 0 0 11.084 0" style="fill:#ffc434;fill-opacity:1;fill-rule:nonzero;stroke:none" transform="translate(-129.75 -131.666)"/><path d="M150.266 176.867a5.542 5.542 0 1 0-11.084 0 5.542 5.542 0 0 0 11.084 0" style="fill:#60ab60;fill-opacity:1;fill-rule:nonzero;stroke:none" transform="translate(-129.75 -131.666)"/><path d="M163.44 190.042a5.542 5.542 0 1 0-11.083 0 5.542 5.542 0 0 0 11.084 0" style="fill:#e15647;fill-opacity:1;fill-rule:nonzero;stroke:none" transform="translate(-129.75 -131.666)"/><path d="M163.44 176.867a5.542 5.542 0 1 0-11.083 0 5.542 5.542 0 0 0 11.084 0M176.615 190.042a5.542 5.542 0 1 0-11.084 0 5.542 5.542 0 0 0 11.084 0" style="fill:#ffc434;fill-opacity:1;fill-rule:nonzero;stroke:none" transform="translate(-129.75 -131.666)"/><path d="M176.615 176.867a5.542 5.542 0 1 0-11.084 0 5.542 5.542 0 0 0 11.084 0M189.79 190.042a5.542 5.542 0 1 0-11.084 0 5.542 5.542 0 0 0 11.084 0" style="fill:#60ab60;fill-opacity:1;fill-rule:nonzero;stroke:none" transform="translate(-129.75 -131.666)"/><path d="M189.79 176.867a5.542 5.542 0 1 0-11.084 0 5.542 5.542 0 0 0 11.084 0" style="fill:#e15647;fill-opacity:1;fill-rule:nonzero;stroke:none" transform="translate(-129.75 -131.666)"/></g></svg>